<svg width="32" height="33" viewBox="0 0 32 33" fill="none" xmlns="http://www.w3.org/2000/svg">
<path d="M20.0001 10.1333L9.58755 20.6937C9.24284 21.0732 9.05762 21.5703 9.07026 22.0823C9.08289 22.5942 9.29241 23.0817 9.65544 23.4437C10.0185 23.8058 10.5072 24.0148 11.0204 24.0274C11.5337 24.04 12.0321 23.8553 12.4126 23.5115L24.8251 10.9562C25.5145 10.1973 25.8849 9.20295 25.8596 8.17911C25.8344 7.15527 25.4153 6.18032 24.6893 5.45614C23.9632 4.73195 22.9858 4.31399 21.9593 4.28878C20.9328 4.26357 19.936 4.63305 19.1751 5.32072L6.76255 17.8759C5.6387 18.9969 5.00732 20.5173 5.00732 22.1026C5.00732 23.6879 5.6387 25.2082 6.76255 26.3292C7.88641 27.4502 9.41068 28.0799 11.0001 28.0799C12.5894 28.0799 14.1137 27.4502 15.2376 26.3292L25.5001 16.118" stroke="#78787C" stroke-width="2" stroke-linecap="round" stroke-linejoin="round"/>
</svg>
