<svg width="32" height="33" viewBox="0 0 32 33" fill="none" xmlns="http://www.w3.org/2000/svg">
<path d="M16 28.0872C22.6274 28.0872 28 22.7284 28 16.118C28 9.50755 22.6274 4.14874 16 4.14874C9.37258 4.14874 4 9.50755 4 16.118C4 22.7284 9.37258 28.0872 16 28.0872Z" stroke="#78787C" stroke-width="2" stroke-linecap="round" stroke-linejoin="round"/>
<path d="M11.5 15.1205C12.3284 15.1205 13 14.4506 13 13.6243C13 12.798 12.3284 12.1282 11.5 12.1282C10.6716 12.1282 10 12.798 10 13.6243C10 14.4506 10.6716 15.1205 11.5 15.1205Z" fill="#7C7878"/>
<path d="M20.5 15.1205C21.3284 15.1205 22 14.4506 22 13.6243C22 12.798 21.3284 12.1282 20.5 12.1282C19.6716 12.1282 19 12.798 19 13.6243C19 14.4506 19.6716 15.1205 20.5 15.1205Z" fill="#7C7878"/>
<path d="M21.2 19.1102C20.6714 20.0186 19.9128 20.7726 19.0003 21.2968C18.0877 21.8209 17.0531 22.0967 16 22.0967C14.947 22.0967 13.9124 21.8209 12.9998 21.2968C12.0873 20.7726 11.3287 20.0186 10.8 19.1102" stroke="#78787C" stroke-width="2" stroke-linecap="round" stroke-linejoin="round"/>
</svg>
