<svg width="25" height="26" viewBox="0 0 25 26" fill="none" xmlns="http://www.w3.org/2000/svg">
<path d="M12.4011 5.61652C14.924 5.61652 16.6855 7.35064 16.6855 9.83579V16.9822C16.6855 19.4673 14.924 21.2015 12.4011 21.2015H4.70104C2.1781 21.2015 0.416626 19.4673 0.416626 16.9822V9.83579C0.416626 7.35064 2.1781 5.61652 4.70104 5.61652H12.4011ZM20.7895 8.08827C21.2468 7.85621 21.7833 7.88047 22.2197 8.15472C22.6562 8.42792 22.9166 8.90259 22.9166 9.42156V17.397C22.9166 17.9171 22.6562 18.3907 22.2197 18.6639C21.9812 18.8126 21.7145 18.8886 21.4458 18.8886C21.2218 18.8886 20.9979 18.8358 20.7885 18.7293L19.2458 17.9529C18.6749 17.6639 18.3207 17.0838 18.3207 16.4393V10.3783C18.3207 9.73273 18.6749 9.15258 19.2458 8.86567L20.7895 8.08827Z" fill="#BEBEBE"/>
</svg>
